<svg width="1151" height="407" viewBox="0 0 1151 407" fill="none" xmlns="http://www.w3.org/2000/svg">
<g opacity="0.1">
<mask id="mask0_10696_7" style="mask-type:alpha" maskUnits="userSpaceOnUse" x="947" y="0" width="204" height="275">
<path d="M947.5 0.5H1127C1139.98 0.5 1150.5 11.0213 1150.5 24V274.5H997C969.662 274.5 947.5 252.338 947.5 225V0.5Z" fill="url(#paint0_linear_10696_7)" stroke="#6246E5"/>
</mask>
<g mask="url(#mask0_10696_7)">
<circle cx="1126.02" cy="178.32" r="91.8033" stroke="#6246E5"/>
<circle cx="1118.73" cy="168.604" r="102.734" stroke="#6246E5"/>
<circle cx="1112.66" cy="160.71" r="112.45" stroke="#6246E5"/>
<circle cx="1106.58" cy="149.171" r="120.952" stroke="#6246E5"/>
<circle cx="1100.81" cy="137.937" r="129.15" stroke="#6246E5"/>
<circle cx="1091.1" cy="125.185" r="141.902" stroke="#6246E5"/>
</g>
</g>
<g opacity="0.1">
<mask id="mask1_10696_7" style="mask-type:alpha" maskUnits="userSpaceOnUse" x="0" y="131" width="374" height="276">
<rect x="373.5" y="131.5" width="275" height="373" transform="rotate(90 373.5 131.5)" fill="url(#paint1_linear_10696_7)" stroke="#6246E5"/>
</mask>
<g mask="url(#mask1_10696_7)">
<path d="M130.506 499.92C61.1732 499.92 4.96665 443.635 4.96665 374.202C4.96666 304.769 61.1732 248.484 130.506 248.484C199.839 248.484 256.046 304.769 256.046 374.202C256.046 443.635 199.839 499.92 130.506 499.92Z" stroke="#6246E5"/>
<path d="M143.773 504.902C66.1974 504.902 3.30834 441.925 3.30834 364.237C3.30835 286.55 66.1974 223.573 143.773 223.573C221.35 223.573 284.239 286.55 284.239 364.237C284.239 441.925 221.35 504.902 143.773 504.902Z" stroke="#6246E5"/>
<path d="M154.553 509.885C69.6496 509.885 0.820607 440.959 0.820611 355.934C0.820615 270.909 69.6496 201.983 154.553 201.983C239.456 201.983 308.286 270.909 308.286 355.934C308.286 440.959 239.456 509.885 154.553 509.885Z" stroke="#6246E5"/>
<path d="M170.308 513.206C78.9936 513.206 4.96706 439.076 4.96706 347.63C4.96707 256.184 78.9936 182.054 170.308 182.054C261.623 182.054 335.65 256.184 335.65 347.63C335.65 439.076 261.623 513.206 170.308 513.206Z" stroke="#6246E5"/>
<path d="M185.649 516.528C88.1513 516.528 9.1129 437.378 9.11291 339.742C9.11291 242.105 88.1513 162.955 185.649 162.955C283.146 162.955 362.184 242.105 362.184 339.742C362.184 437.379 283.146 516.528 185.649 516.528Z" stroke="#6246E5"/>
<path d="M203.062 520.68C95.9475 520.68 9.1129 433.723 9.11291 326.456C9.11291 219.188 95.9475 132.231 203.062 132.231C310.176 132.231 397.011 219.188 397.011 326.456C397.011 433.723 310.176 520.68 203.062 520.68Z" stroke="#6246E5"/>
</g>
</g>
<defs>
<linearGradient id="paint0_linear_10696_7" x1="1091.68" y1="7.71543" x2="948.313" y2="275.703" gradientUnits="userSpaceOnUse">
<stop stop-color="#747DEF"/>
<stop offset="1" stop-color="#5E3BE1"/>
</linearGradient>
<linearGradient id="paint1_linear_10696_7" x1="569.75" y1="141.493" x2="374.203" y2="505.109" gradientUnits="userSpaceOnUse">
<stop stop-color="#747DEF"/>
<stop offset="1" stop-color="#5E3BE1"/>
</linearGradient>
</defs>
</svg>
