<svg xmlns="http://www.w3.org/2000/svg" fill="none" viewBox="25.99 43 112.05 79.01">
<path d="M48.8052 73.9999C48.8052 83.9411 56.864 91.9999 66.8052 91.9999L93.8052 91.9999C96.5666 91.9999 98.8052 89.7614 98.8052 86.9999L98.8052 52.9999C98.8052 47.4771 94.328 42.9999 88.8052 42.9999L53.8052 42.9999C51.0438 42.9999 48.8052 45.2385 48.8052 47.9999L48.8052 73.9999Z" fill="#FFF1DA"/>
<path d="M97.3891 87.9413C96.0307 88.2456 94.7077 88.8091 93.5022 89.5965C90.3614 91.5978 88.5341 94.4546 89.421 95.9767C90.308 97.4988 93.5731 97.1095 96.7138 95.1082C97.9356 94.3486 99.021 93.3779 99.9032 92.2559C100.313 91.7138 100.386 91.0383 100.091 90.5334L98.9386 88.556C98.6454 88.0495 98.0374 87.8086 97.3891 87.9413Z" fill="#D5D6DB"/>
<path d="M89.5021 60.9482C88.5171 61.169 87.5577 61.5778 86.6834 62.1488C84.4066 63.5996 83.0808 65.671 83.7234 66.7738C84.366 67.8766 86.7345 67.5941 89.0111 66.1434C89.897 65.5923 90.6839 64.8881 91.3237 64.0744C91.6202 63.6815 91.6733 63.1922 91.4593 62.8261L90.6251 61.3943C90.4128 61.0271 89.9722 60.8521 89.5021 60.9482Z" fill="#D5D6DB"/>
<path d="M76.688 62.0787C76.4687 62.0542 76.2349 62.1126 76.0322 62.2421L70.684 65.6503C70.2366 65.9346 70.0576 66.4819 70.2845 66.8731C70.3364 66.9627 70.4075 67.0393 70.4937 67.0983L83.6753 76.1832L101.509 64.8185L76.688 62.0787Z" fill="#029BC5"/>
<path d="M133.065 60.794L84.5329 91.3461L55.8201 102.772L41.177 105.682L39.566 102.945L120.461 52.9985C122.872 51.5036 125.558 50.586 128.246 50.3389C129.424 50.237 130.587 50.2762 131.708 50.455C132.702 50.6057 133.645 50.8964 134.508 51.3185C135.472 51.7967 137.307 51.8519 137.901 52.8047C137.903 52.8032 139.305 57.1776 133.065 60.794V60.794Z" fill="#E1E6E9"/>
<path d="M85.1762 87.3036L64.1809 120.774C63.9187 121.244 64.0744 121.77 64.5283 121.949C64.8068 122.059 65.1477 122.016 65.4341 121.834L70.7781 118.444C71.806 117.791 72.7161 116.963 73.4523 116.009L114.169 68.1404L85.1762 87.3036Z" fill="#029BC5"/>
<path d="M32.1966 86.1861C31.8464 86.0664 31.4296 86.1285 31.0778 86.3525L26.6603 89.1659C26.0584 89.549 25.8185 90.2854 26.1244 90.8111C26.1827 90.911 26.2584 90.999 26.3491 91.0714L38.7259 100.984L51.7389 92.8557L32.1966 86.1861Z" fill="#029BC5"/>
<path d="M42.8743 102.771L36.2128 112.1C36.1152 112.234 36.1381 112.403 36.2641 112.476C36.3549 112.529 36.4789 112.519 36.5797 112.452L40.708 109.836C40.74 109.815 40.7691 109.79 40.7931 109.761L50.5266 97.9261L42.8743 102.771Z" fill="#029BC5"/>
<path d="M130.911 50.8572C129.757 50.6718 128.559 50.6322 127.346 50.7388C126.166 52.3899 125.411 54.2446 125.157 56.118C125.139 56.4943 125.442 56.7652 125.835 56.723C125.957 56.7098 126.079 56.6669 126.188 56.5981L133.796 51.7538C132.906 51.3152 131.935 51.0134 130.911 50.8572Z" fill="#029BC5"/>
<path d="M114.332 59.7653L119.299 56.6284L123.926 64.4974L118.959 67.6343L114.332 59.7653Z" fill="#D5D6DB"/>
<path d="M111.207 62.8775C110.608 63.2567 110.369 63.9855 110.673 64.5052L111.165 65.3472C111.489 65.8536 112.228 65.9427 112.816 65.546C113.376 65.1682 113.602 64.4815 113.332 63.9745L112.84 63.1325C112.536 62.6132 111.805 62.499 111.207 62.8775V62.8775Z" fill="#3A556A"/>
<path d="M106.742 65.65C106.144 66.0291 105.904 66.7579 106.208 67.2777L106.701 68.1196C107.025 68.6261 107.764 68.7152 108.352 68.3185C108.912 67.9407 109.137 67.254 108.868 66.747L108.375 65.905C108.071 65.3859 107.341 65.2716 106.742 65.65V65.65Z" fill="#3A556A"/>
<path d="M102.276 68.4233C101.679 68.803 101.44 69.5309 101.744 70.0501L102.236 70.8921C102.56 71.3986 103.299 71.4876 103.887 71.0909C104.447 70.7131 104.673 70.0265 104.403 69.5195L103.911 68.6775C103.607 68.1578 102.875 68.044 102.276 68.4233V68.4233Z" fill="#3A556A"/>
<path d="M97.8121 71.1957C97.2142 71.5754 96.9758 72.3033 97.2794 72.8226L97.7717 73.6646C98.0956 74.171 98.8348 74.2601 99.4231 73.8634C99.9829 73.4856 100.208 72.7989 99.9386 72.2919L99.4463 71.4499C99.1422 70.9304 98.4106 70.8166 97.8121 71.1957V71.1957Z" fill="#3A556A"/>
<path d="M93.3481 73.9684C92.7499 74.3482 92.5113 75.0764 92.8151 75.5959L93.3077 76.4383C93.6114 76.9575 94.3427 77.0712 94.941 76.6923C95.5394 76.3133 95.7783 75.5851 95.4746 75.0658L94.982 74.2235C94.6791 73.7037 93.9481 73.5892 93.3494 73.9676C93.3489 73.9679 93.3486 73.9681 93.3481 73.9684Z" fill="#3A556A"/>
<path d="M88.8837 76.7408C88.2855 77.1207 88.047 77.8489 88.3508 78.3684L88.8434 79.2107C89.147 79.73 89.8783 79.8437 90.4767 79.4647C91.075 79.0857 91.3139 78.3575 91.0103 77.8383L90.5177 76.9959C90.2148 76.4762 89.4838 76.3617 88.885 76.74C88.8845 76.7404 88.884 76.7407 88.8837 76.7408Z" fill="#3A556A"/>
<path d="M84.4191 79.5134C83.8209 79.8932 83.5824 80.6214 83.8862 81.1409L84.3788 81.9832C84.6832 82.502 85.4148 82.6145 86.0125 82.2351C86.6092 81.8562 86.8476 81.1296 86.5454 80.6109L86.0528 79.7686C85.7492 79.249 85.018 79.1347 84.4191 79.5134Z" fill="#3A556A"/>
<path d="M79.9545 82.2859C79.3563 82.6657 79.1178 83.3939 79.4216 83.9134L79.9142 84.7558C80.2186 85.2746 80.9502 85.3871 81.5479 85.0076C82.1446 84.6288 82.383 83.9021 82.0808 83.3835L81.5882 82.5411C81.2846 82.0215 80.5534 81.9072 79.9545 82.2859Z" fill="#3A556A"/>
<path d="M75.4903 85.0583C74.8921 85.4381 74.6535 86.1663 74.9573 86.6858L75.4499 87.5281C75.7543 88.0469 76.486 88.1595 77.0837 87.78C77.6804 87.4011 77.9188 86.6745 77.6165 86.1559L77.1239 85.3136C76.8201 84.7941 76.0889 84.6798 75.4903 85.0583Z" fill="#3A556A"/>
<path d="M71.0245 87.8315C70.4261 88.2105 70.1872 88.9387 70.4909 89.458L70.4915 89.4591L70.9841 90.3014C71.2885 90.8202 72.0201 90.9328 72.6179 90.5533C73.2146 90.1744 73.453 89.4478 73.1507 88.9291L72.6581 88.0868C72.3546 87.5671 71.6233 87.4528 71.0245 87.8315Z" fill="#3A556A"/>
<path d="M66.5612 90.6032C65.9629 90.9822 65.724 91.7104 66.0276 92.2296L66.0283 92.2307L66.5209 93.073C66.8253 93.5918 67.5569 93.7044 68.1546 93.3249C68.7514 92.9461 68.9898 92.2194 68.6875 91.7008L68.1949 90.8585C67.8911 90.339 67.1599 90.2247 66.5612 90.6032Z" fill="#3A556A"/>
</svg>